<svg width="50" height="50" viewBox="0 0 50 50" fill="none" xmlns="http://www.w3.org/2000/svg">
<path d="M25 0.61676C19.0637 0.617006 13.3212 2.72954 8.79992 6.57638C4.27868 10.4232 1.27376 15.7533 0.32284 21.613C-0.628079 27.4726 0.537052 33.4794 3.60976 38.5586C6.68246 43.6378 11.4622 47.458 17.0938 49.3355C18.3438 49.5543 18.8126 48.8043 18.8126 48.148C18.8126 47.5543 18.7813 45.5855 18.7813 43.4918C12.5 44.648 10.875 41.9606 10.375 40.5543C9.8202 39.1866 8.9407 37.9746 7.81251 37.023C6.93751 36.5543 5.68751 35.398 7.78123 35.3668C8.5807 35.4536 9.34748 35.7318 10.0166 36.1778C10.6857 36.6239 11.2374 37.2246 11.625 37.9292C11.9669 38.5435 12.4267 39.0842 12.978 39.5205C13.5293 39.9567 14.1612 40.2799 14.8376 40.4715C15.514 40.6631 16.2215 40.7194 16.9197 40.637C17.6179 40.5547 18.2929 40.3354 18.9062 39.9917C19.0144 38.7208 19.5809 37.5325 20.5 36.6481C14.9375 36.0231 9.12501 33.8667 9.12501 24.3043C9.08988 21.8197 10.0067 19.4158 11.6875 17.5856C10.9232 15.4261 11.0126 13.0563 11.9375 10.9606C11.9375 10.9606 14.0312 10.3043 18.8125 13.5231C22.9032 12.398 27.2218 12.398 31.3125 13.5231C36.0937 10.2731 38.1875 10.9606 38.1875 10.9606C39.1125 13.0563 39.2019 15.4262 38.4375 17.5856C40.1234 19.4126 41.041 21.8187 41 24.3043C41 33.898 35.1562 36.0231 29.5938 36.6481C30.1904 37.2528 30.6499 37.9788 30.9411 38.7769C31.2322 39.5749 31.3483 40.4262 31.2813 41.2731C31.2813 44.6169 31.25 47.3043 31.25 48.1481C31.25 48.8044 31.7187 49.5856 32.9687 49.3356C38.5904 47.4428 43.3564 43.6137 46.416 38.5319C49.4757 33.4501 50.6297 27.4463 49.6722 21.5924C48.7147 15.7384 45.7079 10.4152 41.1887 6.57304C36.6694 2.73089 30.9318 0.619848 25 0.61676Z" fill="black"/>
</svg>
