<svg width="50" height="50" viewBox="0 0 50 50" fill="none" xmlns="http://www.w3.org/2000/svg">
<path d="M46.175 -1.66341e-05H3.82499C3.34894 -0.00662819 2.87625 0.0806021 2.43391 0.256693C1.99157 0.432783 1.58825 0.694285 1.24699 1.02626C0.905723 1.35824 0.633198 1.75419 0.444974 2.19151C0.25675 2.62882 0.156515 3.09893 0.149994 3.57498V46.425C0.156515 46.901 0.25675 47.3711 0.444974 47.8085C0.633198 48.2458 0.905723 48.6417 1.24699 48.9737C1.58825 49.3057 1.99157 49.5672 2.43391 49.7433C2.87625 49.9194 3.34894 50.0066 3.82499 50H46.175C46.651 50.0066 47.1237 49.9194 47.5661 49.7433C48.0084 49.5672 48.4117 49.3057 48.753 48.9737C49.0943 48.6417 49.3668 48.2458 49.555 47.8085C49.7432 47.3711 49.8435 46.901 49.85 46.425V3.57498C49.8435 3.09893 49.7432 2.62882 49.555 2.19151C49.3668 1.75419 49.0943 1.35824 48.753 1.02626C48.4117 0.694285 48.0084 0.432783 47.5661 0.256693C47.1237 0.0806021 46.651 -0.00662819 46.175 -1.66341e-05ZM15.225 41.85H7.72499V19.35H15.225V41.85ZM11.475 16.2C10.4406 16.2 9.44867 15.7891 8.71728 15.0577C7.98589 14.3263 7.57499 13.3343 7.57499 12.3C7.57499 11.2656 7.98589 10.2737 8.71728 9.54227C9.44867 8.81087 10.4406 8.39998 11.475 8.39998C12.0242 8.33769 12.5804 8.39212 13.1072 8.55969C13.6339 8.72726 14.1193 9.00421 14.5316 9.37239C14.9439 9.74057 15.2738 10.1917 15.4997 10.6962C15.7255 11.2007 15.8423 11.7472 15.8423 12.3C15.8423 12.8527 15.7255 13.3993 15.4997 13.9038C15.2738 14.4083 14.9439 14.8594 14.5316 15.2276C14.1193 15.5958 13.6339 15.8727 13.1072 16.0403C12.5804 16.2078 12.0242 16.2623 11.475 16.2ZM42.275 41.85H34.775V29.775C34.775 26.75 33.7 24.775 30.975 24.775C30.1317 24.7812 29.3105 25.0457 28.6221 25.5329C27.9337 26.0201 27.4112 26.7067 27.125 27.5C26.9294 28.0876 26.8446 28.7064 26.875 29.325V41.825H19.375C19.375 41.825 19.375 21.375 19.375 19.325H26.875V22.5C27.5563 21.3177 28.5473 20.3438 29.7411 19.683C30.9349 19.0222 32.2864 18.6996 33.65 18.75C38.65 18.75 42.275 21.975 42.275 28.9V41.85Z" fill="black"/>
</svg>
