<svg xmlns="http://www.w3.org/2000/svg" viewBox="0 0 537 457">
  <defs>
    <style>
      .cls-1,
      .cls-2,
      .cls-3,
      .cls-4 {
        fill: none;
        stroke: #000;
        stroke-linecap: round;
      }

      .cls-1,
      .cls-2 {
        stroke-miterlimit: 10;
      }

      .cls-1,
      .cls-3 {
        stroke-width: 7px;
      }

      .cls-2,
      .cls-4 {
        stroke-width: 3px;
      }

      .cls-3,
      .cls-4 {
        stroke-linejoin: round;
      }
    </style>
  </defs>
  <title>logo</title>
  <g id="Layer_2" data-name="Layer 2">
    <g id="Layer_1-2" data-name="Layer 1">
      <circle class="cls-1" cx="333.5" cy="183.5" r="180" />
      <line class="cls-2" x1="333.5" y1="63.5" x2="333.5" y2="303.5" />
      <line class="cls-2" x1="430.04" y1="115.9" x2="236.96" y2="251.1" />
      <line class="cls-2" x1="430.04" y1="251.1" x2="236.96" y2="115.9" />
      <path
        class="cls-1"
        d="M153.5,393.5c30-45,315,45,360,0s0,60,0,60h-360S123.5,438.5,153.5,393.5Z"
      />
      <polygon
        class="cls-3"
        points="168.5 362.14 58.5 18.5 3.5 34.86 113.5 378.5 168.5 362.14"
      />
      <polygon
        class="cls-4"
        points="333.5 243.5 348.5 198.5 393.5 183.5 348.5 168.5 333.5 123.5 
          318.5 168.5 273.5 183.5 318.5 198.5 333.5 243.5"
      />
      <path class="cls-4" d="M288.5,108.5c0,33.16-20.13,60-45,60" />
      <path class="cls-4" d="M258.5,108.5a30,30,0,0,1-30,30" />
      <path class="cls-4" d="M378.5,108.5c0,33.16,20.13,60,45,60" />
      <path class="cls-4" d="M408.5,108.5c0,16.58,6.71,30,15,30" />
      <path class="cls-4" d="M378.5,258.5c0-33.16,20.13-60,45-60" />
      <path class="cls-4" d="M288.5,258.5c0-33.16-20.13-60-45-60" />
      <path class="cls-4" d="M258.5,258.5a30,30,0,0,0-30-30" />
      <path class="cls-4" d="M408.5,258.5a30,30,0,0,1,30-30" />
      <polyline class="cls-4" points="303.5 93.5 333.5 108.5 363.5 93.5" />
      <polyline class="cls-4" points="363.5 273.5 333.5 258.5 303.5 273.5" />
      <polyline class="cls-4" points="318.5 63.5 333.5 78.5 348.5 63.5" />
      <polyline class="cls-4" points="318.5 303.5 333.5 288.5 348.5 303.5" />
    </g>
  </g>
</svg>
